<?xml version="1.0" encoding="UTF-8" standalone="no"?>
<svg
        width="16"
        height="16"
        fill="currentColor"
        class="bi bi-9-square-fill"
        viewBox="0 0 16 16"
        id="svg355"
        sodipodi:docname="D-square-fill.svg"
        inkscape:version="1.2.2 (b0a84865, 2022-12-01)"
        xmlns:inkscape="http://www.inkscape.org/namespaces/inkscape"
        xmlns:sodipodi="http://sodipodi.sourceforge.net/DTD/sodipodi-0.dtd"
        xmlns="http://www.w3.org/2000/svg"
>
  <defs
     id="defs359" />
  <sodipodi:namedview
     id="namedview357"
     pagecolor="#ffffff"
     bordercolor="#666666"
     borderopacity="1.0"
     inkscape:showpageshadow="2"
     inkscape:pageopacity="0.0"
     inkscape:pagecheckerboard="0"
     inkscape:deskcolor="#d1d1d1"
     showgrid="false"
     inkscape:zoom="14.75"
     inkscape:cx="8.3728814"
     inkscape:cy="-3.0847458"
     inkscape:window-width="1427"
     inkscape:window-height="847"
     inkscape:window-x="0"
     inkscape:window-y="25"
     inkscape:window-maximized="0"
     inkscape:current-layer="svg355" />
  <path
     d="M7.895 8.174c.808 0 1.535-.528 1.535-1.594s-.668-1.676-1.56-1.676c-.838 0-1.517.616-1.517 1.659 0 1.072.708 1.61 1.54 1.61Z"
     id="path351" />
  <path
     d="M2 0a2 2 0 0 0-2 2v12a2 2 0 0 0 2 2h12a2 2 0 0 0 2-2V2a2 2 0 0 0-2-2H2Zm5.777 12.146c-1.593 0-2.425-.89-2.52-1.798h1.296c.1.357.539.72 1.248.72 1.36 0 1.88-1.353 1.834-3.023h-.076c-.235.627-.873 1.184-1.934 1.184-1.395 0-2.566-.961-2.566-2.666 0-1.711 1.242-2.731 2.87-2.731 1.512 0 2.971.867 2.971 4.014 0 2.836-1.02 4.3-3.123 4.3Z"
     id="path353" />
  <rect
     style="fill:#000000;stroke:none;stroke-width:2;stroke-linecap:round;stroke-linejoin:bevel"
     id="rect1086"
     width="8.4067793"
     height="10.169492"
     x="3.7966101"
     y="3.0508475" />
  <text
     xml:space="preserve"
     style="font-style:normal;font-weight:normal;font-size:13.3333px;line-height:1.25;font-family:sans-serif;fill:#ffffff;fill-opacity:1;stroke:none"
     x="3.1864407"
     y="12.745763"
     id="text1196"><tspan
       sodipodi:role="line"
       id="tspan1194"
       x="3.1864407"
       y="12.745763"
       style="font-size:13.3333px;fill:#ffffff">D</tspan></text>
</svg>
