<?xml version="1.0" encoding="UTF-8" standalone="no"?>
<svg
        width="16"
        height="16"
        fill="currentColor"
        class="bi bi-mouse2"
        viewBox="0 0 16 16"
        version="1.1"
        id="svg4"
        sodipodi:docname="mouse2-right_click.svg"
        inkscape:version="1.2.2 (b0a84865, 2022-12-01)"
        xmlns:inkscape="http://www.inkscape.org/namespaces/inkscape"
        xmlns:sodipodi="http://sodipodi.sourceforge.net/DTD/sodipodi-0.dtd"
        xmlns="http://www.w3.org/2000/svg"
>
  <defs
     id="defs8" />
  <sodipodi:namedview
     id="namedview6"
     pagecolor="#ffffff"
     bordercolor="#666666"
     borderopacity="1.0"
     inkscape:showpageshadow="2"
     inkscape:pageopacity="0.0"
     inkscape:pagecheckerboard="0"
     inkscape:deskcolor="#d1d1d1"
     showgrid="false"
     inkscape:zoom="14.75"
     inkscape:cx="7.9322034"
     inkscape:cy="8.0338983"
     inkscape:window-width="1440"
     inkscape:window-height="847"
     inkscape:window-x="0"
     inkscape:window-y="25"
     inkscape:window-maximized="1"
     inkscape:current-layer="svg4" />
  <path
     d="M3 5.188C3 2.341 5.22 0 8 0s5 2.342 5 5.188v5.625C13 13.658 10.78 16 8 16s-5-2.342-5-5.188V5.189zm4.5-4.155C5.541 1.289 4 3.035 4 5.188V5.5h3.5V1.033zm1 0V5.5H12v-.313c0-2.152-1.541-3.898-3.5-4.154zM12 6.5H4v4.313C4 13.145 5.81 15 8 15s4-1.855 4-4.188V6.5z"
     id="path2" />
  <path
     style="fill:#000000;stroke:#9ca2a2;stroke-width:0.135593;stroke-linecap:round;stroke-linejoin:bevel"
     d="M 8.5423729,3.2614439 V 1.0652607 l 0.2881356,0.063065 C 8.9889831,1.163012 9.3322034,1.2924741 9.5932203,1.4160196 10.98662,2.0755486 11.821975,3.3418544 11.957496,5 l 0.0374,0.4576271 h -1.72626 -1.7262631 z"
     id="path321" />
</svg>
