<?xml version="1.0" encoding="UTF-8" standalone="no"?>
<svg
        width="16"
        height="16"
        fill="currentColor"
        class="bi bi-mouse2"
        viewBox="0 0 16 16"
        id="svg4"
        sodipodi:docname="mouse2-left_click.svg"
        inkscape:version="1.2.2 (b0a84865, 2022-12-01)"
        xmlns:inkscape="http://www.inkscape.org/namespaces/inkscape"
        xmlns:sodipodi="http://sodipodi.sourceforge.net/DTD/sodipodi-0.dtd"
        xmlns="http://www.w3.org/2000/svg"
>
  <defs
     id="defs8" />
  <sodipodi:namedview
     id="namedview6"
     pagecolor="#ffffff"
     bordercolor="#666666"
     borderopacity="1.0"
     inkscape:showpageshadow="2"
     inkscape:pageopacity="0.0"
     inkscape:pagecheckerboard="0"
     inkscape:deskcolor="#d1d1d1"
     showgrid="false"
     inkscape:zoom="14.75"
     inkscape:cx="7.9322034"
     inkscape:cy="8.0338983"
     inkscape:window-width="1440"
     inkscape:window-height="847"
     inkscape:window-x="0"
     inkscape:window-y="25"
     inkscape:window-maximized="1"
     inkscape:current-layer="svg4" />
  <path
     d="M3 5.188C3 2.341 5.22 0 8 0s5 2.342 5 5.188v5.625C13 13.658 10.78 16 8 16s-5-2.342-5-5.188V5.189zm4.5-4.155C5.541 1.289 4 3.035 4 5.188V5.5h3.5V1.033zm1 0V5.5H12v-.313c0-2.152-1.541-3.898-3.5-4.154zM12 6.5H4v4.313C4 13.145 5.81 15 8 15s4-1.855 4-4.188V6.5z"
     id="path2" />
  <path
     style="fill:#000000;stroke:#9ca2a2;stroke-width:0.135593;stroke-linecap:round;stroke-linejoin:bevel"
     d="M 4.0425039,5 C 4.1975464,3.1030049 5.3809974,1.602774 7.0677966,1.1649123 L 7.4576271,1.0637196 V 3.2606734 5.4576271 H 5.7313644 4.0051018 Z"
     id="path328" />
</svg>
