<svg xmlns="http://www.w3.org/2000/svg" width="52" height="64" viewBox="0 0 52 64">
  <g fill="none" fill-rule="evenodd">
    <g fill-rule="nonzero">
      <path fill="#9CA2A2" d="M26.7090909,0 C26.4727273,0 26.2363636,0 26,0 C11.5818182,0 0,11.6148148 0,26.0740741 C0,45.2740741 20.8,60.9185185 24.3454545,63.2888889 C24.5818182,63.5259259 24.8181818,63.762963 25.0545455,63.762963 C25.2909091,64 25.7636364,64 26.2363636,64 C26.7090909,64 27.1818182,63.762963 27.6545455,63.5259259 C28.3636364,63.0518519 52,46.4592593 52,26.0740741 C52,11.8518519 40.6545455,0.474074074 26.7090909,0 Z"/>
      <path fill="#FFF" d="M26,4.88888889 C14.8318182,4.88888889 6.05681818,13.6888889 6.05681818,24.8888889 C6.05681818,36.0888889 14.8318182,44.8888889 26,44.8888889 C37.1681818,44.8888889 45.9431818,36.0888889 45.9431818,24.8888889 C45.9431818,13.6888889 37.1681818,4.88888889 26,4.88888889 Z"/>
    </g>
    <path fill="#9CA2A2" fill-rule="nonzero" d="M24.5911302,4.21205594 C24.5911302,4.66723077 24.2180712,5.03909091 23.7626148,5.03909091 C23.3071585,5.03909091 22.9785421,5.4086993 23.0333656,5.86033566 L24.9911143,22.181972 C25.0582649,22.6316783 24.7374342,23 24.2784094,23 L17.7287912,23 C17.269442,23 16.6553545,23 16.3646929,23 C16.0733825,23 15.8346247,22.6281399 15.8346247,22.172965 L15.8346247,21.4848951 C15.8346247,21.030042 15.6811839,20.3181678 15.4940056,19.9032028 C15.4940056,19.9032028 14.4121346,17.5086294 12.6564865,17.5086294 C10.9008385,17.5086294 9.81896743,19.9032028 9.81896743,19.9032028 C9.63146474,20.3181678 9.47802396,21.0303636 9.47802396,21.4848951 L9.47802396,22.172965 C9.47802396,22.6281399 9.239915,23 8.94860459,23 C8.65729418,23 8.04320665,23 7.58450629,23 L0.721842907,23 C0.262493753,23 -0.0580125775,22.6316783 0.00881364122,22.181972 L1.96591353,5.86033566 C2.02073698,5.4086993 1.68984988,5.03941259 1.23114953,5.03941259 L1.13934457,5.03941259 C0.68031982,5.03941259 0.304665639,4.66723077 0.304665639,4.2126993 L0.304665639,0.827356643 C0.304665639,0.372181818 0.68031982,0 1.13934457,0 L5.28581413,0 C5.74483888,0 6.12049307,0.372181818 6.12049307,0.827356643 L6.12049307,1.69267133 C6.12049307,2.14784615 6.49614725,2.51970629 6.955172,2.51970629 L7.90047104,2.51970629 C8.35982019,2.51970629 8.73514997,2.14752448 8.73514997,1.69267133 L8.73514997,0.827356643 C8.73514997,0.372181818 9.11080415,0 9.56982891,0 L10.5151279,0 C10.9744771,0 11.3498069,0.372181818 11.3498069,0.827356643 L11.3498069,1.69267133 C11.3498069,2.14784615 11.7254611,2.51970629 12.1844858,2.51970629 L13.1294605,2.51970629 C13.5884852,2.51970629 13.9641394,2.14752448 13.9641394,1.69267133 L13.9641394,0.827356643 C13.9641394,0.372181818 14.3394692,0 14.7984939,0 L15.7441174,0 C16.2031421,0 16.5784719,0.372181818 16.5784719,0.827356643 L16.5784719,1.69267133 C16.5784719,2.14784615 16.9538017,2.51970629 17.4131508,2.51970629 L18.3581255,2.51970629 C18.8174746,2.51970629 19.1928044,2.14752448 19.1928044,1.69267133 L19.1928044,0.827356643 C19.1928044,0.372181818 19.5684586,0 20.0274833,0 L23.7571,0 C24.2161248,0 24.591779,0.372181818 24.591779,0.827356643 L24.591779,4.21205594 L24.5911302,4.21205594 Z" transform="translate(14 13)"/>
  </g>
</svg>
