<svg xmlns="http://www.w3.org/2000/svg" width="52" height="64" viewBox="0 0 52 64">
  <g fill="none" fill-rule="evenodd">
    <g fill-rule="nonzero">
      <path fill="#9CA2A2" d="M26.7090909,0 C26.4727273,0 26.2363636,0 26,0 C11.5818182,0 0,11.6148148 0,26.0740741 C0,45.2740741 20.8,60.9185185 24.3454545,63.2888889 C24.5818182,63.5259259 24.8181818,63.762963 25.0545455,63.762963 C25.2909091,64 25.7636364,64 26.2363636,64 C26.7090909,64 27.1818182,63.762963 27.6545455,63.5259259 C28.3636364,63.0518519 52,46.4592593 52,26.0740741 C52,11.8518519 40.6545455,0.474074074 26.7090909,0 Z"/>
      <path fill="#FFF" d="M26,4.88888889 C14.8318182,4.88888889 6.05681818,13.6888889 6.05681818,24.8888889 C6.05681818,36.0888889 14.8318182,44.8888889 26,44.8888889 C37.1681818,44.8888889 45.9431818,36.0888889 45.9431818,24.8888889 C45.9431818,13.6888889 37.1681818,4.88888889 26,4.88888889 Z"/>
    </g>
    <path fill="#9CA2A2" fill-rule="nonzero" d="M22.4733771,5.8627993e-06 L15.0129705,19.9999942 L1.11049168,19.9999942 C0.747055287,20.0011748 0.406194455,19.8231921 0.198518296,19.5237954 C-0.0091578637,19.2243988 -0.0571857925,18.8417394 0.07001954,18.49999 L6.71133107,0.722233145 C6.87344986,0.286670426 7.28860214,-0.00149860841 7.75180321,5.8627993e-06 L22.4733771,5.8627993e-06 Z M22.8939935,19.9999883 L25.8161706,19.9999883 L24.355082,16.3222148 L22.8939935,19.9999883 Z M30.9299805,18.49999 L24.432564,1.11112158 L17.3706361,19.9999942 L20.5031214,19.9999942 L23.3256788,12.9222188 C23.4926519,12.4981304 23.9008068,12.219508 24.355082,12.219508 C24.8093573,12.219508 25.2175121,12.4981304 25.3844853,12.9222188 L28.2070427,19.9999942 L29.8895083,19.9999942 C30.2529447,20.0011748 30.5938055,19.8231921 30.8014817,19.5237954 C31.0091579,19.2243988 31.0571858,18.8417394 30.9299805,18.49999 Z" transform="translate(11 14)"/>
  </g>
</svg>
