<svg xmlns="http://www.w3.org/2000/svg" width="52" height="64" viewBox="0 0 52 64">
  <g fill="none" fill-rule="evenodd">
    <g fill-rule="nonzero">
      <path fill="#9CA2A2" d="M26.7090909,0 C26.4727273,0 26.2363636,0 26,0 C11.5818182,0 0,11.6148148 0,26.0740741 C0,45.2740741 20.8,60.9185185 24.3454545,63.2888889 C24.5818182,63.5259259 24.8181818,63.762963 25.0545455,63.762963 C25.2909091,64 25.7636364,64 26.2363636,64 C26.7090909,64 27.1818182,63.762963 27.6545455,63.5259259 C28.3636364,63.0518519 52,46.4592593 52,26.0740741 C52,11.8518519 40.6545455,0.474074074 26.7090909,0 Z"/>
      <path fill="#FFF" d="M26,4.88888889 C14.8318182,4.88888889 6.05681818,13.6888889 6.05681818,24.8888889 C6.05681818,36.0888889 14.8318182,44.8888889 26,44.8888889 C37.1681818,44.8888889 45.9431818,36.0888889 45.9431818,24.8888889 C45.9431818,13.6888889 37.1681818,4.88888889 26,4.88888889 Z"/>
    </g>
    <path fill="#9CA2A2" fill-rule="nonzero" d="M25.8491097,17.2305529 C25.6760821,17.4865565 25.3870965,17.6397639 25.0781184,17.6392984 L19.5046867,17.6392984 L19.5046867,24.1420663 L20.433592,24.1420663 C20.9466122,24.1420663 21.3624973,24.5579789 21.3624973,25.0710332 C21.3624973,25.5840874 20.9466122,26 20.433592,26 L16.7179709,26 C16.2049507,26 15.7890657,25.5840874 15.7890657,25.0710332 C15.7890657,24.5579789 16.2049507,24.1420663 16.7179709,24.1420663 L17.6468762,24.1420663 L17.6468762,17.6392984 L15.5289722,17.6392984 C15.820483,17.1424925 15.8650883,16.5385643 15.6497299,16.0043167 L13.5039587,10.8021024 L17.7211886,0.583467023 C17.8671087,0.240907401 18.2034587,0.018579337 18.5757815,0.018579337 C18.9481042,0.018579337 19.2844542,0.240907401 19.4303743,0.583467023 L25.9327112,16.3759034 C26.0460802,16.6573452 26.0148686,16.976419 25.8491097,17.2305529 Z M8.2835111,0.564887686 C8.13759098,0.222328064 7.80124098,0 7.42891825,0 C7.05659552,0 6.72024552,0.222328064 6.5743254,0.564887686 L0.0719885236,16.3573241 C-0.0479751559,16.6440579 -0.0165983428,16.971793 0.155589998,17.2305529 C0.32861759,17.4865565 0.617603251,17.6397639 0.926581371,17.6392984 L6.50001298,17.6392984 L6.50001298,24.1420663 L5.57110771,24.1420663 C5.0580875,24.1420663 4.64220244,24.5579789 4.64220244,25.0710332 C4.64220244,25.5840874 5.0580875,26 5.57110771,26 L9.28672879,26 C9.799749,26 10.2156341,25.5840874 10.2156341,25.0710332 C10.2156341,24.5579789 9.799749,24.1420663 9.28672879,24.1420663 L8.35782352,24.1420663 L8.35782352,17.6392984 L13.9312551,17.6392984 C14.2402332,17.6397639 14.5292189,17.4865565 14.7022465,17.2305529 C14.8744348,16.971793 14.9058117,16.6440579 14.785848,16.3573241 L8.2835111,0.564887686 Z" transform="translate(13 11)"/>
  </g>
</svg>
