<svg xmlns="http://www.w3.org/2000/svg" width="52" height="64" viewBox="0 0 52 64">
  <g fill="none" fill-rule="evenodd">
    <g fill-rule="nonzero">
      <path fill="#9CA2A2" d="M26.7090909,0 C26.4727273,0 26.2363636,0 26,0 C11.5818182,0 0,11.6148148 0,26.0740741 C0,45.2740741 20.8,60.9185185 24.3454545,63.2888889 C24.5818182,63.5259259 24.8181818,63.762963 25.0545455,63.762963 C25.2909091,64 25.7636364,64 26.2363636,64 C26.7090909,64 27.1818182,63.762963 27.6545455,63.5259259 C28.3636364,63.0518519 52,46.4592593 52,26.0740741 C52,11.8518519 40.6545455,0.474074074 26.7090909,0 Z"/>
      <path fill="#FFF" d="M26,4.88888889 C14.8318182,4.88888889 6.05681818,13.6888889 6.05681818,24.8888889 C6.05681818,36.0888889 14.8318182,44.8888889 26,44.8888889 C37.1681818,44.8888889 45.9431818,36.0888889 45.9431818,24.8888889 C45.9431818,13.6888889 37.1681818,4.88888889 26,4.88888889 Z"/>
    </g>
    <path fill="#9CA2A2" fill-rule="nonzero" d="M30.8864,11.5014209 L24.5674667,1.89993342 L24.5667556,1.90029068 C23.8129778,0.755257474 22.5208889,0 21.0524444,0 C18.7271111,0 16.8423111,1.89421718 16.8423111,4.23072801 C16.8423111,4.44723039 16.8583111,4.66051738 16.8896,4.86844541 L16.8906667,4.87523344 L16.9208889,5.07708797 L15.0791111,5.07708797 L15.1093333,4.87523344 L15.1104,4.86844541 C15.1416889,4.66051738 15.1576889,4.44758765 15.1576889,4.23072801 C15.1576889,1.89385992 13.2728889,0 10.9475556,0 C9.47911111,0 8.18702222,0.755614739 7.43324444,1.90029068 L7.43253333,1.89993342 L1.1136,11.5014209 L1.11466667,11.5017782 C0.411022222,12.5710713 0,13.8522223 0,15.2305494 C0,18.969324 3.01617778,22 6.73671111,22 C10.112,22 12.9073778,19.5055782 13.3973333,16.2508972 L13.3976889,16.2508972 L13.6963556,14.2630767 C14.2848,14.8597087 15.0997333,15.2305494 16,15.2305494 C16.9002667,15.2305494 17.7148444,14.8597087 18.3032889,14.2630767 L18.6023111,16.2508972 L18.6026667,16.2508972 C19.0926222,19.5055782 21.888,22 25.2632889,22 C28.9838222,22 32,18.969324 32,15.2305494 C32,13.8525796 31.5889778,12.5714286 30.8853333,11.5017782 L30.8864,11.5014209 Z M6.73671111,19.6306208 C4.32248889,19.6306208 2.35768889,17.6567336 2.35768889,15.2305494 C2.35768889,12.8043651 4.32248889,10.8308352 6.73671111,10.8308352 C9.15128889,10.8308352 11.1157333,12.8047224 11.1157333,15.2305494 C11.1160889,17.6567336 9.15128889,19.6306208 6.73671111,19.6306208 Z M16,13.5381867 C15.1388444,13.5381867 14.4405333,12.8368762 14.4405333,11.971224 C14.4405333,11.105929 15.1388444,10.4042612 16,10.4042612 C16.8611556,10.4042612 17.5594667,11.105929 17.5594667,11.971224 C17.5594667,12.8368762 16.8611556,13.5381867 16,13.5381867 Z M25.2632889,19.6306208 C22.8487111,19.6306208 20.8842667,17.6567336 20.8842667,15.2305494 C20.8842667,12.8043651 22.8487111,10.8308352 25.2632889,10.8308352 C27.6778667,10.8308352 29.6423111,12.8047224 29.6423111,15.2305494 C29.6423111,17.6567336 27.6778667,19.6306208 25.2632889,19.6306208 Z" transform="translate(10 13)"/>
  </g>
</svg>
