<?xml version="1.0" encoding="UTF-8"?>
<svg width="200px" height="25px" viewBox="0 0 200 25" version="1.1" xmlns="http://www.w3.org/2000/svg" xmlns:xlink="http://www.w3.org/1999/xlink">
    <title>BB70A97B-F15E-41BB-B8AE-088633963632@1x</title>
    <g id="Draft" stroke="none" stroke-width="1" fill="none" fill-rule="evenodd">
        <g id="Login" transform="translate(-99.000000, -42.000000)">
            <g id="Logo" transform="translate(99.000000, 42.000000)">
                <path d="M3.83963558,20.6613986 C5.34237853,20.6613986 6.51400862,20.3236631 7.35452586,19.6481922 C8.1950431,18.9727214 8.61530172,18.028313 8.61530172,16.8149672 C8.61530172,16.0269178 8.44337774,15.3858459 8.09952978,14.8917515 C7.75568182,14.397657 7.34179075,14.0192682 6.85785658,13.7565851 C6.37392241,13.493902 5.76263715,13.2249645 5.02400078,12.9497727 L5.02400078,12.9497727 L4.24079154,12.6495634 C3.73138715,12.4369152 3.36206897,12.2367756 3.13283699,12.0491448 C2.90360502,11.861514 2.78898903,11.5988309 2.78898903,11.2610955 C2.78898903,10.8733252 2.95454545,10.5637343 3.28565831,10.332323 C3.61677116,10.1009117 4.08160266,9.98520603 4.68015282,9.98520603 C5.16408699,9.98520603 5.67667516,10.0602584 6.21791732,10.210363 C6.75915948,10.3604676 7.26538009,10.5668615 7.73657915,10.8295446 L7.73657915,10.8295446 L8.15683777,8.35281807 C6.98520768,7.90250415 5.83904781,7.67734719 4.71835815,7.67734719 C3.24108542,7.67734719 2.08855799,8.02133699 1.26077586,8.70931659 C0.43299373,9.39729619 0.0191026646,10.3417046 0.0191026646,11.5425417 C0.0191026646,12.2805562 0.175107759,12.8809747 0.487117947,13.3437974 C0.799128135,13.80662 1.17163009,14.1662457 1.60462382,14.4226745 C2.03761755,14.6791032 2.61069749,14.9511679 3.32386364,15.2388684 C3.42574451,15.2763946 3.51489028,15.3107936 3.59130094,15.3420654 C3.6677116,15.3733372 3.7377547,15.4014818 3.80143025,15.4264992 L3.80143025,15.4264992 L4.2598942,15.61413 C4.80750392,15.8267783 5.20865987,16.0237906 5.46336207,16.2051671 C5.71806426,16.3865435 5.84541536,16.6460994 5.84541536,16.9838349 C5.84541536,17.3966226 5.65438871,17.7281037 5.27233542,17.9782781 C4.89028213,18.2284525 4.39361285,18.3535397 3.78232759,18.3535397 C3.24745298,18.3535397 2.66482171,18.2565971 2.03443378,18.062712 C1.40404585,17.8688268 0.802311912,17.5967622 0.229231975,17.246518 L0.229231975,17.246518 L0,19.7607707 C0.483934169,20.0359626 1.06019788,20.2548652 1.72879114,20.4174785 C2.3973844,20.5800919 3.10099922,20.6613986 3.83963558,20.6613986 Z M15.0856471,20.6989247 C15.7224026,20.6989247 16.3496068,20.6269996 16.9672596,20.4831493 C17.5849124,20.339299 18.148441,20.1360323 18.6578454,19.8733492 L18.6578454,19.8733492 L18.2184841,17.7531212 C17.8364308,17.9532607 17.390702,18.1127469 16.8812976,18.2315797 C16.3718932,18.3504125 15.8815915,18.409829 15.4103924,18.409829 C14.6335507,18.409829 14.0158979,18.2378341 13.5574339,17.8938443 C13.09897,17.5498545 12.8060625,17.0463785 12.6787114,16.3834163 L12.6787114,16.3834163 L19.1736173,16.3834163 C19.1863524,16.2458204 19.19272,16.0331722 19.19272,15.7454716 C19.19272,14.0442857 18.8106667,12.7433788 18.0465601,11.842751 C17.2824535,10.9421231 16.1872341,10.4918092 14.7609018,10.4918092 C13.7930335,10.4918092 12.9493325,10.6982031 12.2297988,11.1109908 C11.5102651,11.5237786 10.953104,12.1148156 10.5583156,12.8841019 C10.1635272,13.6533882 9.966133,14.5571432 9.966133,15.595367 C9.966133,17.1964831 10.4214132,18.4473551 11.3319735,19.347983 C12.2425339,20.2486108 13.4937584,20.6989247 15.0856471,20.6989247 Z M23.6190803,20.4174785 L23.6190803,14.8073176 C23.8610474,14.2319165 24.2112629,13.7565851 24.6697268,13.3813235 C25.1281908,13.0060619 25.6121249,12.8184311 26.1215293,12.8184311 C26.5545231,12.8184311 26.898371,12.9591542 27.1530732,13.2406004 C27.4077754,13.5220466 27.5351265,13.9129441 27.5351265,14.4132929 L27.5351265,14.4132929 L27.5351265,20.4174785 L30.2286022,20.4174785 L30.2286022,14.0005052 C30.2286022,12.8997378 29.9293271,12.0397633 29.330777,11.4205817 C28.7322268,10.8014 27.9044447,10.4918092 26.8474306,10.4918092 C26.1342644,10.4918092 25.5102441,10.6481682 24.9753695,10.9608862 C24.4404948,11.2736042 23.9692958,11.7614443 23.5617723,12.4244064 L23.5617723,12.4244064 L23.5617723,10.7544923 L20.9256046,10.7544923 L20.9256046,20.4174785 L23.6190803,20.4174785 Z M35.762917,20.6989247 C36.6289045,20.6989247 37.4694217,20.5112939 38.2844688,20.1360323 L38.2844688,20.1360323 L37.6922862,18.1471458 C37.2338222,18.3097592 36.8262987,18.3910659 36.4697156,18.3910659 C36.1768081,18.3910659 35.9507599,18.3222679 35.791571,18.184672 C35.6323822,18.0470761 35.5527877,17.8469366 35.5527877,17.5842534 L35.5527877,17.5842534 L35.5527877,13.024825 L38.0361341,13.024825 L38.0361341,10.7544923 L35.5527877,10.7544923 L35.5527877,8.35281807 C34.6740652,8.42787039 33.7826075,8.54044887 32.8784147,8.69055351 L32.8784147,8.69055351 L32.8784147,10.7544923 L31.3502015,10.7544923 L31.3502015,13.024825 L32.8784147,13.024825 L32.8784147,18.0720935 C32.8784147,18.9101778 33.1299331,19.557504 33.6329699,20.0140723 C34.1360068,20.4706406 34.8459891,20.6989247 35.762917,20.6989247 Z M45.7481527,20.4174785 L45.7481527,18.1471458 L44.1053236,18.1471458 L44.1053236,10.7544923 L39.5779921,10.7544923 L39.5779921,13.024825 L41.4118479,13.024825 L41.4118479,18.1471458 L39.5779921,18.1471458 L39.5779921,20.4174785 L45.7481527,20.4174785 Z M51.7027262,20.6989247 C52.3394816,20.6989247 52.9666858,20.6269996 53.5843386,20.4831493 C54.2019914,20.339299 54.76552,20.1360323 55.2749244,19.8733492 L55.2749244,19.8733492 L54.8355631,17.7531212 C54.4535099,17.9532607 54.007781,18.1127469 53.4983766,18.2315797 C52.9889722,18.3504125 52.4986705,18.409829 52.0274715,18.409829 C51.2506298,18.409829 50.6329769,18.2378341 50.174513,17.8938443 C49.716049,17.5498545 49.4231415,17.0463785 49.2957904,16.3834163 L49.2957904,16.3834163 L55.7906964,16.3834163 C55.8034315,16.2458204 55.809799,16.0331722 55.809799,15.7454716 C55.809799,14.0442857 55.4277457,12.7433788 54.6636392,11.842751 C53.8995326,10.9421231 52.8043131,10.4918092 51.3779809,10.4918092 C50.4101125,10.4918092 49.5664115,10.6982031 48.8468778,11.1109908 C48.1273441,11.5237786 47.570183,12.1148156 47.1753946,12.8841019 C46.7806062,13.6533882 46.583212,14.5571432 46.583212,15.595367 C46.583212,17.1964831 47.0384922,18.4473551 47.9490526,19.347983 C48.8596129,20.2486108 50.1108374,20.6989247 51.7027262,20.6989247 Z M60.2934673,20.4174785 L60.2934673,14.7510284 C60.6118451,14.363258 60.8569959,14.0755575 61.0289199,13.8879267 C61.2008439,13.7002959 61.3982381,13.5501912 61.6211025,13.4376128 C61.8439669,13.3250343 62.1018529,13.268745 62.3947604,13.268745 C62.5985222,13.268745 62.8659595,13.3125256 63.1970723,13.4000866 L63.1970723,13.4000866 L63.4836123,10.5480984 C63.330791,10.4980636 63.1397643,10.4730461 62.9105324,10.4730461 C62.3629226,10.4730461 61.9076425,10.6231508 61.5446918,10.92336 C61.1817412,11.2235693 60.8156068,11.6926463 60.4462886,12.330591 L60.4462886,12.330591 L60.2934673,12.330591 L60.2934673,10.7544923 L57.5999916,10.7544923 L57.5999916,20.4174785 L60.2934673,20.4174785 Z M70.9090909,20.4174785 L70.9090909,18.1471458 L69.2662618,18.1471458 L69.2662618,10.7544923 L64.7389303,10.7544923 L64.7389303,13.024825 L66.5727861,13.024825 L66.5727861,18.1471458 L64.7389303,18.1471458 L64.7389303,20.4174785 L70.9090909,20.4174785 Z" id="Sentieri" fill-opacity="0.85" fill="#000000" fill-rule="nonzero"></path>
                <path d="M91.4373704,22.311828 L94.3636364,20.654631 L91.5186556,17.6877138 C92.4760142,15.9057816 92.9456618,13.8031016 92.9275985,11.3796738 L92.9275985,11.3796738 L89.4594314,11.8073375 C89.387178,13.1259673 89.215576,14.239675 88.9446254,15.1484604 L88.9446254,15.1484604 L85.9641694,12.1548143 C86.8312111,11.4242221 87.5131033,10.6758105 88.009846,9.90957967 C88.5065887,9.14334881 88.75496,8.28802134 88.75496,7.34359726 C88.75496,6.16752199 88.3711134,5.23200758 87.6034202,4.53705401 C86.835727,3.84210044 85.7925674,3.49462366 84.4739414,3.49462366 C83.0649985,3.49462366 81.8908795,3.89555841 80.9515842,4.69742791 C80.012289,5.49929741 79.5426414,6.60409539 79.5426414,8.01182185 C79.5426414,8.65331745 79.669085,9.28144856 79.9219722,9.89621518 C80.1748593,10.5109818 80.6354753,11.2103902 81.30382,11.9944404 C80.2380811,12.7250326 79.3755552,13.5135376 78.7162422,14.3599554 C78.0569292,15.2063732 77.7272727,16.2265294 77.7272727,17.420424 C77.7272727,18.8637891 78.2465946,20.0086806 79.2852384,20.8550984 C80.3238821,21.7015162 81.7102458,22.1247251 83.4443293,22.1247251 C84.5461948,22.1247251 85.6164495,21.9465319 86.6550933,21.5901454 C87.693737,21.233759 88.583358,20.7437276 89.3239562,20.1200513 L89.3239562,20.1200513 L91.4373704,22.311828 Z M83.9862304,10.0164956 C83.5527095,9.49973526 83.2546639,9.07652635 83.0920936,8.74686889 C82.9295232,8.41721143 82.8482381,8.10982812 82.8482381,7.82471896 C82.8482381,7.34359726 82.992745,6.97384633 83.281759,6.71546615 C83.5707729,6.45708598 83.9049452,6.32789589 84.284276,6.32789589 C84.62748,6.32789589 84.9164939,6.43481183 85.1513177,6.6486437 C85.3861415,6.86247556 85.5035534,7.16540404 85.5035534,7.55742913 C85.5035534,8.37711795 84.9977791,9.19680678 83.9862304,10.0164956 Z M83.9320403,19.077621 C83.1914421,19.077621 82.56374,18.9083374 82.048934,18.5697703 C81.5341279,18.2312032 81.2767249,17.7144428 81.2767249,17.0194892 C81.2767249,16.5205482 81.4347794,16.0394265 81.7508884,15.5761241 C82.0669973,15.1128218 82.5863192,14.6406097 83.308854,14.159488 C83.308854,14.159488 83.3106314,14.1612414 83.3141863,14.1647483 L86.3802627,17.1894 L86.3802627,17.1894 L86.6415458,17.447153 L87.1292567,17.9015457 C86.7318626,18.2579321 86.2486675,18.5430413 85.6796713,18.7568732 C85.1106752,18.970705 84.5281315,19.077621 83.9320403,19.077621 Z" id="&amp;" fill="#D04341" fill-rule="nonzero"></path>
                <path d="M105.755511,20.9713409 C106.937665,20.9713409 107.992707,20.7956362 108.920635,20.4442267 L108.920635,20.4442267 L108.50116,18.128689 C107.725769,18.3922461 106.924954,18.5240247 106.098717,18.5240247 C104.840294,18.5240247 103.855165,18.1726152 103.14333,17.4697961 C102.431495,16.7669771 102.075578,15.7817754 102.075578,14.5141911 C102.075578,13.2717075 102.412428,12.277093 103.086129,11.5303478 C103.75983,10.7836026 104.675047,10.41023 105.831779,10.41023 C106.645305,10.41023 107.484253,10.6047603 108.348624,10.9938208 L108.348624,10.9938208 L108.863433,8.56533006 C107.88466,8.18881986 106.867753,8.00056477 105.812712,8.00056477 C104.516155,8.00056477 103.372135,8.27980983 102.38065,8.83829995 C101.389165,9.39679007 100.623307,10.1905991 100.083075,11.2197269 C99.5428433,12.2488548 99.2727273,13.4348619 99.2727273,14.7777482 C99.2727273,16.7481516 99.8447376,18.2730179 100.988758,19.3523471 C102.132779,20.4316763 103.721696,20.9713409 105.755511,20.9713409 Z M113.395934,21.0089919 C113.993367,21.0089919 114.530421,20.8521127 115.007097,20.5383542 C115.483772,20.2245957 115.887357,19.7727835 116.217852,19.1829175 L116.217852,19.1829175 L116.29412,19.1829175 L116.236919,20.7266093 L118.791898,20.7266093 L118.791898,11.2197269 C117.495341,10.9185188 116.364032,10.7679147 115.39797,10.7679147 C113.681939,10.7679147 112.366316,11.2354148 111.451099,12.1704152 C110.535883,13.1054155 110.078274,14.4639898 110.078274,16.246138 C110.078274,17.7145278 110.376991,18.8754342 110.974424,19.7288573 C111.571857,20.5822804 112.379027,21.0089919 113.395934,21.0089919 Z M123.839208,20.7266093 L123.839208,15.0413054 C124.156992,14.6522448 124.401685,14.363587 124.573288,14.1753319 C124.744891,13.9870768 124.941917,13.8364728 125.164365,13.7235197 C125.386814,13.6105666 125.644219,13.5540901 125.936579,13.5540901 C126.139961,13.5540901 126.406899,13.5980163 126.737394,13.6858687 L126.737394,13.6858687 L127.023399,10.8243912 C126.870863,10.7741899 126.680193,10.7490892 126.451389,10.7490892 C125.904801,10.7490892 125.450371,10.8996933 125.088097,11.2009014 C124.725824,11.5021096 124.360373,11.9727473 123.991744,12.6128146 L123.991744,12.6128146 L123.839208,12.6128146 L123.839208,11.0314718 L121.15076,11.0314718 L121.15076,20.7266093 L123.839208,20.7266093 Z M132.31858,21.0089919 C133.182951,21.0089919 134.0219,20.8207369 134.835426,20.4442267 L134.835426,20.4442267 L134.244348,18.4487226 C133.78674,18.6118771 133.379977,18.6934543 133.02406,18.6934543 C132.731699,18.6934543 132.506072,18.6244274 132.347181,18.4863737 C132.188289,18.3483199 132.108843,18.1475145 132.108843,17.8839573 L132.108843,17.8839573 L132.108843,13.3093585 L134.587554,13.3093585 L134.587554,11.0314718 L132.108843,11.0314718 L132.108843,8.62180658 C131.231761,8.69710862 130.341967,8.81006168 129.439462,8.96066576 L129.439462,8.96066576 L129.439462,11.0314718 L127.914101,11.0314718 L127.914101,13.3093585 L129.439462,13.3093585 L129.439462,18.3734206 C129.439462,19.2142934 129.690511,19.8637734 130.192608,20.3218608 C130.694706,20.7799482 131.403364,21.0089919 132.31858,21.0089919 Z M140.550081,21.0089919 C141.528854,21.0089919 142.396403,20.7924986 143.152728,20.3595119 C143.909053,19.9265251 144.493774,19.3178337 144.906893,18.5334374 C145.320011,17.7490412 145.526571,16.8485543 145.526571,15.8319768 C145.526571,14.8279496 145.320011,13.9431507 144.906893,13.1775799 C144.493774,12.4120092 143.909053,11.8190056 143.152728,11.3985693 C142.396403,10.9781329 141.522498,10.7679147 140.531014,10.7679147 C139.539529,10.7679147 138.665625,10.9812705 137.9093,11.407982 C137.152975,11.8346936 136.568254,12.4339723 136.155135,13.2058182 C135.742016,13.9776641 135.535457,14.8718758 135.535457,15.8884533 C135.535457,16.9050308 135.745194,17.7992426 136.164669,18.5710884 C136.584143,19.3429343 137.172042,19.9422131 137.928367,20.3689246 C138.684692,20.7956362 139.558596,21.0089919 140.550081,21.0089919 Z M150.631082,25 C152.410669,25 153.742182,24.5607381 154.62562,23.6822143 C155.509058,22.8036905 155.963489,21.4733545 155.988912,19.6912063 C156.001623,19.1013403 156.007979,18.2228165 156.007979,17.0556349 C156.007979,15.7503996 155.995267,13.8050969 155.969845,11.2197269 C154.584308,10.9185188 153.389443,10.7679147 152.385247,10.7679147 C150.643793,10.7679147 149.305924,11.2385524 148.371641,12.1798279 C147.437357,13.1211034 146.970216,14.4890904 146.970216,16.283789 C146.970216,17.7647291 147.284821,18.922498 147.914033,19.7570956 C148.543244,20.5916932 149.417149,21.0089919 150.535747,21.0089919 C151.095046,21.0089919 151.609855,20.9023141 152.080174,20.6889583 C152.550494,20.4756025 152.963613,20.1681192 153.31953,19.7665083 L153.31953,19.7665083 L153.376731,19.7665083 C153.351308,20.5069784 153.265507,21.0905692 153.119327,21.5172807 C152.973146,21.9439923 152.725275,22.2577508 152.375713,22.4585562 C152.026151,22.6593616 151.527231,22.7597643 150.878953,22.7597643 C150.065427,22.7597643 149.04852,22.5840596 147.828231,22.2326501 L147.828231,22.2326501 L147.313422,24.5670133 C148.393886,24.8556711 149.499772,25 150.631082,25 Z M160.92182,20.7266093 L160.92182,15.0413054 C161.239603,14.6522448 161.484296,14.363587 161.655899,14.1753319 C161.827503,13.9870768 162.024528,13.8364728 162.246977,13.7235197 C162.469425,13.6105666 162.72683,13.5540901 163.019191,13.5540901 C163.222572,13.5540901 163.48951,13.5980163 163.820005,13.6858687 L163.820005,13.6858687 L164.10601,10.8243912 C163.953474,10.7741899 163.762804,10.7490892 163.534,10.7490892 C162.987412,10.7490892 162.532982,10.8996933 162.170709,11.2009014 C161.808436,11.5021096 161.442985,11.9727473 161.074356,12.6128146 L161.074356,12.6128146 L160.92182,12.6128146 L160.92182,11.0314718 L158.233371,11.0314718 L158.233371,20.7266093 L160.92182,20.7266093 Z M168.0093,21.0089919 C168.606733,21.0089919 169.143787,20.8521127 169.620462,20.5383542 C170.097137,20.2245957 170.500722,19.7727835 170.831217,19.1829175 L170.831217,19.1829175 L170.907485,19.1829175 L170.850284,20.7266093 L173.405264,20.7266093 L173.405264,11.2197269 C172.108707,10.9185188 170.977398,10.7679147 170.011336,10.7679147 C168.295305,10.7679147 166.979681,11.2354148 166.064465,12.1704152 C165.149248,13.1054155 164.69164,14.4639898 164.69164,16.246138 C164.69164,17.7145278 164.990356,18.8754342 165.587789,19.7288573 C166.185222,20.5822804 166.992392,21.0089919 168.0093,21.0089919 Z M181.865569,20.7266093 L181.865569,18.4487226 L179.577527,18.4487226 L179.577527,13.3093585 L185.488301,13.3093585 L185.488301,18.4487226 L183.657868,18.4487226 L183.657868,20.7266093 L189.816512,20.7266093 L189.816512,18.4487226 L188.176749,18.4487226 L188.176749,11.0314718 L179.577527,11.0314718 L179.577527,9.97724328 C179.577527,9.66348479 179.660151,9.42502833 179.825398,9.26187391 C179.990646,9.0987195 180.21945,9.01714229 180.511811,9.01714229 C180.855017,9.01714229 181.242713,9.12382018 181.674898,9.33717595 L181.674898,9.33717595 L182.609182,7.24754438 C181.744811,6.89613486 180.956708,6.72043011 180.244873,6.72043011 C179.227965,6.72043011 178.41444,7.00595034 177.804295,7.5769908 C177.194151,8.14803126 176.889079,8.90418923 176.889079,9.84546471 L176.889079,9.84546471 L176.889079,11.0314718 L175.153981,11.0314718 L175.153981,13.3093585 L176.889079,13.3093585 L176.889079,18.4487226 L175.153981,18.4487226 L175.153981,20.7266093 L181.865569,20.7266093 Z M193.967672,21.0089919 C194.565105,21.0089919 195.10216,20.8521127 195.578835,20.5383542 C196.05551,20.2245957 196.459095,19.7727835 196.78959,19.1829175 L196.78959,19.1829175 L196.865858,19.1829175 L196.808657,20.7266093 L199.363636,20.7266093 L199.363636,11.2197269 C198.06708,10.9185188 196.93577,10.7679147 195.969709,10.7679147 C194.253678,10.7679147 192.938054,11.2354148 192.022837,12.1704152 C191.107621,13.1054155 190.650013,14.4639898 190.650013,16.246138 C190.650013,17.7145278 190.948729,18.8754342 191.546162,19.7288573 C192.143595,20.5822804 192.950765,21.0089919 193.967672,21.0089919 Z" id="Cartografa" fill-opacity="0.85" fill="#000000" fill-rule="nonzero"></path>
                <path d="M42.331666,9.40860215 C38.6431002,3.13620072 38.6169048,0 42.2530797,0 C45.8892546,0 45.91545,3.13620072 42.331666,9.40860215 Z" id="Path-2" fill="#D04341"></path>
                <path d="M67.9680296,9.40860215 C64.2794638,3.13620072 64.2532684,0 67.8894433,0 C71.5256182,0 71.5518137,3.13620072 67.9680296,9.40860215 Z" id="Path-2-Copy" fill="#D04341"></path>
                <path d="M186.877121,9.40860215 C183.188555,3.13620072 183.162359,0 186.798534,0 C190.434709,0 190.460905,3.13620072 186.877121,9.40860215 Z" id="Path-2-Copy-2" fill="#D04341"></path>
            </g>
        </g>
    </g>
</svg>